<svg width="22" height="21" viewBox="0 0 22 21" fill="none" xmlns="http://www.w3.org/2000/svg">
<path d="M5.20363 6.58138C5.50924 3.83087 7.83412 1.75 10.6016 1.75V1.75C13.369 1.75 15.6939 3.83087 15.9995 6.58138L16.2443 8.78464C16.3699 9.91491 16.7378 11.0048 17.3229 11.98L17.8848 12.9166C18.3721 13.7287 18.6157 14.1347 18.5796 14.4687C18.5499 14.7425 18.4087 14.992 18.1892 15.1583C17.9213 15.3611 17.4478 15.3611 16.5008 15.3611H4.70234C3.75531 15.3611 3.28179 15.3611 3.01397 15.1583C2.79444 14.992 2.65319 14.7425 2.62356 14.4687C2.58741 14.1347 2.83103 13.7287 3.31828 12.9166L3.88025 11.98C4.46535 11.0048 4.83324 9.91491 4.95882 8.78465L5.20363 6.58138Z" stroke="#9FA3A6"/>
<path d="M8.06601 16.3316C8.21557 17.1688 8.54512 17.9087 9.00356 18.4363C9.462 18.964 10.0237 19.25 10.6016 19.25C11.1794 19.25 11.7411 18.964 12.1996 18.4363C12.658 17.9087 12.9876 17.1688 13.1371 16.3316" stroke="#9FA3A6" stroke-linecap="round"/>
</svg>
