<svg width="401" height="205" viewBox="0 0 401 205" fill="none" xmlns="http://www.w3.org/2000/svg">
<path d="M239.706 14.0203C236.637 11.339 233.277 6.84865 229.82 1.90599C232.049 1.58295 233.923 1.03376 234.924 0C237.347 5.16879 239.899 8.39929 243.711 12.5666C242.161 12.0497 241.159 13.5358 239.706 14.0203Z" fill="#C6EAE9"/>
<path d="M60.7042 127.217C57.9259 124.794 54.8893 120.756 51.8203 116.33C53.8232 116.04 55.5031 115.555 56.4399 114.618C58.6043 119.27 60.898 122.21 64.3546 125.925C62.9009 125.408 62.0287 126.765 60.7042 127.217Z" fill="#FBD682"/>
<path d="M111.164 89.0648C112.359 86.2866 114.621 83.0561 117.14 79.6641C117.625 81.3762 118.207 82.7976 118.982 83.4437C116.171 86.0281 114.556 88.451 112.585 92.0046C112.682 90.7447 111.649 90.1632 111.164 89.0648Z" fill="#FBD682"/>
<path d="M238.609 184.752C239.966 181.683 242.454 178.065 245.264 174.317C245.813 176.223 246.427 177.774 247.299 178.517C244.198 181.392 242.389 184.106 240.192 188.047C240.289 186.593 239.159 185.947 238.609 184.752Z" fill="#EE6F57"/>
<path d="M299.18 15.0863C300.536 12.0174 303.024 8.39923 305.834 4.65186C306.384 6.55785 306.997 8.10848 307.87 8.8515C304.768 11.7266 302.959 14.4403 300.763 18.3815C300.86 16.96 299.729 16.3139 299.18 15.0863Z" fill="#708CD5"/>
<path d="M7.91936 113.326C6.72408 110.547 4.46273 107.317 1.94295 103.925C1.45837 105.637 0.876881 107.059 0.101562 107.705C2.91209 110.289 4.52734 112.712 6.49794 116.265C6.43333 115.006 7.43479 114.424 7.91936 113.326Z" fill="#708CD5"/>
<path d="M161.206 65.579C159.849 62.5101 157.361 58.8919 154.551 55.1445C154.002 57.0505 153.388 58.6012 152.516 59.3442C155.617 62.2193 157.426 64.9329 159.623 68.8741C159.526 67.4204 160.656 66.7743 161.206 65.579Z" fill="#D3DFFF"/>
<path d="M280.962 64.222C277.118 65.1588 271.755 65.5465 265.973 65.8372C267.039 64.2866 267.782 62.8652 267.588 61.7991C272.918 62.2837 276.859 61.896 282.254 61.0884C280.93 61.896 281.479 63.0913 280.962 64.222Z" fill="#F5C7BE"/>
<path d="M50.3661 35.6648C53.8227 36.9247 58.6685 37.5062 63.8696 37.8938C62.9004 35.7617 62.2543 33.7911 62.4158 32.3374C57.6347 32.9835 54.0489 32.4666 49.2031 31.3359C50.3661 32.4343 49.9138 34.1142 50.3661 35.6648Z" fill="#C6EAE9"/>
<path d="M168.542 19.4477C164.633 21.7414 158.98 23.5505 152.906 25.198C153.682 22.4198 154.134 19.9646 153.649 18.2525C159.464 17.9294 163.599 16.508 169.156 14.0205C167.96 15.6035 168.8 17.4771 168.542 19.4477Z" fill="#EE6F57"/>
<path d="M248.527 125.957C251.434 127.895 254.761 131.384 258.218 135.261C256.344 135.81 254.761 136.521 253.954 137.554C251.402 133.355 248.882 130.867 245.199 127.734C246.588 127.96 247.299 126.538 248.527 125.957Z" fill="#C6EAE9"/>
<path d="M71.0442 69.1973C74.307 71.394 78.0867 75.3029 81.931 79.6641C79.7989 80.2779 78.0221 81.0532 77.1499 82.2485C74.2747 77.5319 71.4319 74.7214 67.2969 71.2002C68.8475 71.4586 69.6551 69.8757 71.0442 69.1973Z" fill="#F5C7BE"/>
<path d="M283.124 107.091C285.547 104.862 288.035 100.92 290.554 96.5916C288.584 96.0424 286.872 95.364 285.87 94.2656C284.287 98.9498 282.381 101.76 279.441 105.314C280.766 104.959 281.8 106.477 283.124 107.091Z" fill="#F5C7BE"/>
<path d="M365.824 100.21C367.02 97.4316 369.281 94.2011 371.801 90.8091C372.285 92.5212 372.867 93.9427 373.642 94.5888C370.831 97.1732 369.216 99.596 367.246 103.15C367.31 101.89 366.309 101.308 365.824 100.21Z" fill="#EE6F57"/>
<path d="M335.943 49.5232C334.942 53.529 332.648 58.4394 330.031 63.5758C329.03 61.476 327.964 59.7639 326.801 59.0855C329.934 54.8858 331.55 51.2354 333.423 46.002C333.585 47.7464 335.071 48.231 335.943 49.5232Z" fill="#D3DFFF"/>
<path d="M305.32 136.101C306.063 139.041 307.743 142.627 309.649 146.406C310.392 144.856 311.167 143.596 312.007 143.143C309.714 140.074 308.518 137.393 307.162 133.549C307.032 134.776 305.966 135.132 305.32 136.101Z" fill="#D3DFFF"/>
<path d="M396.356 42.9009C393.093 45.0976 389.313 49.0065 385.469 53.3677C387.601 53.9815 389.378 54.7568 390.25 55.9521C393.125 51.2356 395.968 48.425 400.103 44.9038C398.52 45.1622 397.712 43.5793 396.356 42.9009Z" fill="#FBD682"/>
<path d="M200.103 134.333C195.381 134.333 190.992 133.486 186.936 131.792C182.881 130.097 179.353 127.75 176.353 124.75C173.353 121.75 171.006 118.222 169.311 114.167C167.617 110.111 166.77 105.722 166.77 101C166.77 96.3332 167.617 91.9721 169.311 87.9165C171.006 83.861 173.353 80.3332 176.353 77.3332C179.353 74.3332 182.881 71.9721 186.936 70.2498C190.992 68.5276 195.381 67.6665 200.103 67.6665C204.27 67.6665 208.158 68.3332 211.77 69.6665C215.381 70.9998 218.631 72.8332 221.52 75.1665L217.936 78.7498C215.492 76.8054 212.77 75.3054 209.77 74.2498C206.77 73.1943 203.547 72.6665 200.103 72.6665C192.047 72.6665 185.311 75.3748 179.895 80.7915C174.478 86.2082 171.77 92.9443 171.77 101C171.77 109.055 174.478 115.792 179.895 121.208C185.311 126.625 192.047 129.333 200.103 129.333C208.158 129.333 214.895 126.625 220.311 121.208C225.728 115.792 228.436 109.055 228.436 101C228.436 99.3332 228.311 97.7082 228.061 96.1248C227.811 94.5415 227.436 92.9998 226.936 91.4998L230.77 87.6665C231.658 89.7221 232.325 91.861 232.77 94.0832C233.214 96.3054 233.436 98.611 233.436 101C233.436 105.722 232.575 110.111 230.853 114.167C229.131 118.222 226.77 121.75 223.77 124.75C220.77 127.75 217.242 130.097 213.186 131.792C209.131 133.486 204.77 134.333 200.103 134.333ZM195.186 116.167L181.436 102.333L185.186 98.5832L195.186 108.583L229.686 74.0832L233.52 77.8332L195.186 116.167Z" fill="#FDC536"/>
<path d="M134.604 204.073C137.383 201.65 140.419 197.612 143.488 193.186C141.485 192.895 139.806 192.41 138.869 191.474C136.704 196.126 134.411 199.065 130.954 202.78C132.408 202.263 133.28 203.62 134.604 204.073Z" fill="#FBD682"/>
<path d="M84.1406 165.92C82.9453 163.142 80.684 159.912 78.1642 156.52C77.6796 158.232 77.0981 159.653 76.3228 160.299C79.1334 162.884 80.7486 165.306 82.7192 168.86C82.6223 167.6 83.6561 167.019 84.1406 165.92Z" fill="#FBD682"/>
<path d="M187.389 190.181C188.585 187.403 190.846 184.172 193.366 180.78C193.85 182.492 194.432 183.914 195.207 184.56C192.397 187.144 190.781 189.567 188.811 193.121C188.875 191.861 187.874 191.279 187.389 190.181Z" fill="#708CD5"/>
<path d="M34.1029 142.435C35.4597 139.366 37.9472 135.747 40.7578 132C41.3069 133.906 41.9207 135.457 42.793 136.2C39.6917 139.075 37.8826 141.788 35.6859 145.73C35.7828 144.276 34.6521 143.63 34.1029 142.435Z" fill="#D3DFFF"/>
<path d="M124.264 146.053C121.002 148.249 117.222 152.158 113.378 156.52C115.51 157.133 117.286 157.909 118.159 159.104C121.034 154.387 123.877 151.577 128.012 148.056C126.461 148.314 125.653 146.731 124.264 146.053Z" fill="#F5C7BE"/>
</svg>
