<svg width="21" height="22" viewBox="0 0 21 22" fill="none" xmlns="http://www.w3.org/2000/svg">
<path d="M1.28605 11.0774C1.22712 6.13609 5.19559 2.0718 10.1369 2.01286C15.0782 1.95393 19.1425 5.9224 19.2014 10.8637C19.2604 15.805 15.2919 19.8693 10.3506 19.9283C5.40928 19.9872 1.34499 16.0187 1.28605 11.0774ZM17.9515 10.8786C17.9008 6.62893 14.4015 3.21209 10.1518 3.26277C5.90212 3.31346 2.48528 6.8128 2.53597 11.0625C2.58665 15.3122 6.08599 18.729 10.3357 18.6783C14.5854 18.6277 18.0022 15.1283 17.9515 10.8786Z" fill="#E25C5C"/>
<path d="M7.23248 8.64797C7.23059 8.48965 7.28703 8.33063 7.41053 8.20415C7.6493 7.95962 8.04927 7.95485 8.2938 8.19362L13.0664 12.8537C13.3109 13.0925 13.3157 13.4924 13.0769 13.737C12.8382 13.9815 12.4382 13.9863 12.1937 13.7475L7.42107 9.08742C7.29469 8.97225 7.23437 8.8063 7.23248 8.64797Z" fill="#E25C5C"/>
<path d="M7.28873 13.3643C7.28685 13.206 7.34329 13.047 7.46679 12.9205L12.1269 8.1479C12.3656 7.90337 12.7656 7.8986 13.0101 8.13736C13.2547 8.37613 13.2594 8.7761 13.0207 9.02063L8.36059 13.7932C8.12182 14.0377 7.72185 14.0425 7.47732 13.8038C7.35084 13.6803 7.29062 13.5226 7.28873 13.3643Z" fill="#E25C5C"/>
</svg>
