<svg width="17" height="17" viewBox="0 0 17 17" fill="none" xmlns="http://www.w3.org/2000/svg">
<g clip-path="url(#clip0_3678_1906)">
<path d="M9.31551 0.826893C9.88785 0.824696 10.4602 0.830449 11.0324 0.844148L11.1845 0.849638C11.3602 0.855912 11.5336 0.863756 11.743 0.873167C12.5775 0.912383 13.1469 1.04415 13.6465 1.23787C14.1641 1.43709 14.6002 1.70689 15.0363 2.14297C15.435 2.53482 15.7436 3.00881 15.9406 3.53199C16.1343 4.0316 16.2661 4.60179 16.3053 5.4363C16.3147 5.64493 16.3226 5.81905 16.3288 5.99474L16.3336 6.14689C16.3475 6.71881 16.3535 7.29089 16.3516 7.86297L16.3524 8.44807V9.47552C16.3543 10.0479 16.3483 10.6202 16.3343 11.1924L16.3296 11.3445C16.3234 11.5202 16.3155 11.6936 16.3061 11.903C16.2669 12.7375 16.1336 13.3069 15.9406 13.8065C15.7443 14.3302 15.4356 14.8046 15.0363 15.1963C14.6441 15.595 14.1699 15.9036 13.6465 16.1006C13.1469 16.2943 12.5775 16.4261 11.743 16.4653C11.5336 16.4747 11.3602 16.4826 11.1845 16.4889L11.0324 16.4936C10.4602 16.5075 9.88786 16.5135 9.31551 16.5116L8.73042 16.5124H7.70375C7.13141 16.5143 6.55906 16.5083 5.98689 16.4943L5.83473 16.4896C5.64854 16.4829 5.46239 16.475 5.2763 16.4661C4.44179 16.4269 3.87238 16.2936 3.37198 16.1006C2.8486 15.904 2.37452 15.5954 1.98296 15.1963C1.58378 14.8044 1.27491 14.3301 1.07787 13.8065C0.884141 13.3069 0.752376 12.7375 0.713161 11.903C0.704426 11.7169 0.696583 11.5307 0.689631 11.3445L0.68571 11.1924C0.67125 10.6202 0.664713 10.0479 0.666102 9.47552V7.86297C0.663913 7.29089 0.669665 6.71881 0.683357 6.14689L0.688847 5.99474C0.695122 5.81905 0.702965 5.64493 0.712376 5.4363C0.751592 4.60101 0.883357 4.03238 1.07708 3.53199C1.27424 3.00856 1.58372 2.53469 1.98375 2.14376C2.37504 1.74435 2.84882 1.43519 3.37198 1.23787C3.87238 1.04415 4.441 0.912383 5.2763 0.873167L5.83473 0.849638L5.98689 0.845716C6.5588 0.831264 7.13088 0.824727 7.70297 0.826108L9.31551 0.826893ZM8.50924 4.74846C7.98964 4.74111 7.47375 4.83711 6.99157 5.03087C6.50939 5.22463 6.07053 5.51229 5.70049 5.87713C5.33045 6.24197 5.03661 6.67673 4.83605 7.15612C4.63549 7.63551 4.53221 8.14998 4.53221 8.66964C4.53221 9.18929 4.63549 9.70376 4.83605 10.1832C5.03661 10.6625 5.33045 11.0973 5.70049 11.4621C6.07053 11.827 6.50939 12.1146 6.99157 12.3084C7.47375 12.5022 7.98964 12.5982 8.50924 12.5908C9.5493 12.5908 10.5468 12.1776 11.2822 11.4422C12.0176 10.7068 12.4308 9.70931 12.4308 8.66924C12.4308 7.62918 12.0176 6.63171 11.2822 5.89628C10.5468 5.16084 9.5493 4.74846 8.50924 4.74846ZM8.50924 6.31709C8.82179 6.31133 9.13236 6.36791 9.42281 6.48353C9.71325 6.59914 9.97774 6.77147 10.2008 6.99046C10.4239 7.20944 10.6011 7.47068 10.7221 7.75892C10.8431 8.04717 10.9055 8.35663 10.9055 8.66924C10.9056 8.98184 10.8433 9.29133 10.7224 9.57961C10.6015 9.86789 10.4244 10.1292 10.2014 10.3483C9.97837 10.5673 9.71394 10.7397 9.42353 10.8554C9.13313 10.9712 8.82258 11.0278 8.51002 11.0222C7.88599 11.0222 7.28751 10.7743 6.84624 10.333C6.40498 9.89176 6.15708 9.29328 6.15708 8.66924C6.15708 8.04521 6.40498 7.44673 6.84624 7.00546C7.28751 6.5642 7.88599 6.3163 8.51002 6.3163L8.50924 6.31709ZM12.6269 3.57199C12.3739 3.58212 12.1346 3.68976 11.9591 3.87236C11.7837 4.05496 11.6857 4.29837 11.6857 4.5516C11.6857 4.80483 11.7837 5.04823 11.9591 5.23084C12.1346 5.41344 12.3739 5.52108 12.6269 5.53121C12.8869 5.53121 13.1363 5.42791 13.3201 5.24406C13.504 5.0602 13.6073 4.81083 13.6073 4.55081C13.6073 4.2908 13.504 4.04143 13.3201 3.85757C13.1363 3.67371 12.8869 3.57042 12.6269 3.57042V3.57199Z" fill="white"/>
</g>
<defs>
<clipPath id="clip0_3678_1906">
<rect width="16" height="16" fill="white" transform="translate(0.503906 0.588379)"/>
</clipPath>
</defs>
</svg>
