<svg width="238" height="79" viewBox="0 0 238 79" fill="none" xmlns="http://www.w3.org/2000/svg">
<path d="M51.3038 19.8971V59.0204L17.4188 78.5655L1.35767 69.3077V9.60149L17.1388 0.47546L17.3941 0.351893V0.327209H17.4188L51.3038 19.8971Z" fill="white"/>
<path d="M17.3942 0.327209V0.351893L17.1389 0.47546L17.3942 0.327209Z" fill="white"/>
<g opacity="0.8">
<mask id="mask0_3590_1557" style="mask-type:luminance" maskUnits="userSpaceOnUse" x="1" y="0" width="51" height="79">
<path d="M51.3031 0.327148H1.36523V78.5737H51.3031V0.327148Z" fill="white"/>
</mask>
<g mask="url(#mask0_3590_1557)">
<path d="M51.2953 19.8888V59.0121L17.4186 78.5737L1.35742 69.3077V48.7165L17.4186 57.9908L33.4715 48.7165V30.1844L17.4186 20.9019L1.35742 30.1844V9.59319L17.1385 0.483644L17.4186 0.327148L51.2953 19.8888Z" fill="white"/>
</g>
</g>
<path d="M17.419 20.9019L1.34961 30.1762L1.35785 9.59325L17.4108 0.327209L17.419 20.9019Z" fill="white"/>
<path d="M17.4108 57.9908L1.34961 48.7165V30.1762L17.4108 39.4505V57.9908Z" fill="white"/>
<path d="M17.4108 57.9908L1.34961 48.7165V30.1762L17.4108 39.4505V57.9908Z" stroke="#3A3A3A" stroke-width="0.823649" stroke-miterlimit="10"/>
<path d="M17.4102 57.9909V39.4506L33.4713 30.1763V48.7166L17.4102 57.9909Z" fill="white"/>
<path d="M17.4102 57.9909V39.4506L33.4713 30.1763V48.7166L17.4102 57.9909Z" stroke="#3A3A3A" stroke-width="0.823649" stroke-miterlimit="10"/>
<path d="M17.4108 39.4505L1.34961 30.1762L17.4108 20.9019L33.4719 30.1762L17.4108 39.4505Z" fill="white"/>
<path d="M17.4108 39.4505L1.34961 30.1762L17.4108 20.9019L33.4719 30.1762L17.4108 39.4505Z" stroke="#3A3A3A" stroke-width="0.823649" stroke-miterlimit="10"/>
<path d="M60.5449 29.0312H70.0581C77.092 29.0312 82.3634 34.2037 82.3634 41.0977C82.3634 47.9916 77.092 53.1641 70.0581 53.1641H60.5449V29.0312ZM65.9645 34.1378V48.0575H69.9181C71.7639 48.0575 73.5342 47.3243 74.8394 46.019C76.1446 44.7138 76.8779 42.9435 76.8779 41.0977C76.8779 39.2518 76.1446 37.4816 74.8394 36.1763C73.5342 34.8711 71.7639 34.1378 69.9181 34.1378H65.9645Z" fill="white"/>
<path d="M84.7522 44.2439C84.7522 38.9231 88.4586 34.9038 93.3511 34.9038C94.3519 34.8863 95.3457 35.073 96.2718 35.4525C97.198 35.8321 98.0371 36.3964 98.7378 37.1111V35.3238H103.844V53.164H98.7378V51.3767C98.0371 52.0915 97.198 52.6558 96.2718 53.0353C95.3457 53.4149 94.3519 53.6016 93.3511 53.5841C88.4586 53.5841 84.7522 49.5564 84.7522 44.2439ZM98.7542 44.2439C98.7445 43.385 98.4811 42.5482 97.9972 41.8386C97.5132 41.1289 96.8304 40.5782 96.0344 40.2555C95.2383 39.9328 94.3647 39.8526 93.5232 40.0249C92.6818 40.1972 91.91 40.6144 91.3049 41.224C90.6999 41.8336 90.2885 42.6085 90.1225 43.4513C89.9564 44.294 90.0432 45.167 90.3719 45.9606C90.7006 46.7541 91.2564 47.4329 91.9697 47.9115C92.6829 48.3901 93.5217 48.6472 94.3807 48.6505C94.9616 48.6642 95.5391 48.5593 96.0782 48.3423C96.6172 48.1253 97.1063 47.8006 97.5156 47.3882C97.9249 46.9758 98.2458 46.4843 98.4588 45.9437C98.6718 45.4031 98.7723 44.8247 98.7542 44.2439Z" fill="white"/>
<path d="M107.486 30.6703C107.486 30.0823 107.66 29.5074 107.987 29.0184C108.313 28.5295 108.778 28.1484 109.321 27.9233C109.864 27.6983 110.462 27.6394 111.039 27.7541C111.616 27.8688 112.146 28.152 112.561 28.5678C112.977 28.9837 113.26 29.5135 113.375 30.0903C113.49 30.667 113.431 31.2649 113.206 31.8082C112.981 32.3515 112.6 32.8159 112.111 33.1426C111.622 33.4693 111.047 33.6437 110.459 33.6437C110.066 33.6539 109.674 33.584 109.309 33.4381C108.944 33.2923 108.612 33.0737 108.334 32.7955C108.056 32.5174 107.837 32.1855 107.691 31.8201C107.545 31.4548 107.475 31.0636 107.486 30.6703ZM107.906 35.3239H113.012V53.1642H107.906V35.3239Z" fill="white"/>
<path d="M122.237 27.9854H117.131V53.1642H122.237V27.9854Z" fill="white"/>
<path d="M131.578 52.9503L124.412 35.3242H130.252L134.378 46.6576L138.464 35.3242H144.171L134.197 59.803H128.745L131.578 52.9503Z" fill="white"/>
<path d="M146.863 29.0314H158.197C159.017 28.9981 159.835 29.1309 160.602 29.4218C161.369 29.7127 162.07 30.1558 162.661 30.7244C163.253 31.2929 163.724 31.9753 164.045 32.7303C164.366 33.4854 164.531 34.2976 164.531 35.1181C164.55 36.1617 164.295 37.1922 163.791 38.1059C163.286 39.0197 162.55 39.7845 161.656 40.3236C163.105 40.8877 164.311 41.9422 165.063 43.3034C165.815 44.6647 166.066 46.2465 165.772 47.7737C165.478 49.3009 164.658 50.6766 163.455 51.6615C162.251 52.6465 160.74 53.1783 159.185 53.1643H146.863V29.0314ZM150.891 32.7707V38.9234H157.184C157.586 38.9257 157.985 38.8475 158.357 38.6935C158.729 38.5395 159.066 38.3127 159.349 38.0265C159.633 37.7403 159.856 37.4005 160.006 37.027C160.156 36.6534 160.229 36.2537 160.223 35.8512C160.235 35.4468 160.165 35.0441 160.017 34.6675C159.87 34.2909 159.647 33.9483 159.363 33.6603C159.079 33.3723 158.739 33.145 158.364 32.9921C157.99 32.8392 157.588 32.7639 157.184 32.7707H150.891ZM150.891 42.4568V49.4002H158.164C159.057 49.3567 159.9 48.9711 160.517 48.3232C161.134 47.6754 161.478 46.815 161.478 45.9203C161.478 45.0256 161.134 44.1652 160.517 43.5173C159.9 42.8695 159.057 42.4838 158.164 42.4403L150.891 42.4568Z" fill="white"/>
<path d="M173.022 27.9854H169.109V53.1642H173.022V27.9854Z" fill="white"/>
<path d="M176.665 44.244C176.622 42.3455 177.146 40.4773 178.17 38.878C179.194 37.2787 180.671 36.0208 182.414 35.265C184.156 34.5091 186.084 34.2896 187.951 34.6344C189.819 34.9792 191.541 35.8726 192.898 37.2007C194.256 38.5288 195.187 40.2313 195.572 42.0908C195.957 43.9503 195.78 45.8825 195.062 47.6407C194.345 49.3989 193.119 50.9033 191.543 51.962C189.966 53.0206 188.11 53.5854 186.211 53.5842C184.963 53.6266 183.72 53.4155 182.556 52.9638C181.392 52.5121 180.332 51.8291 179.44 50.956C178.547 50.083 177.841 49.038 177.364 47.8844C176.887 46.7307 176.649 45.4923 176.665 44.244ZM191.704 44.244C191.695 43.1557 191.363 42.0946 190.751 41.1946C190.138 40.2946 189.274 39.5961 188.265 39.1871C187.256 38.7781 186.149 38.677 185.083 38.8965C184.017 39.116 183.04 39.6463 182.275 40.4205C181.51 41.1947 180.991 42.1781 180.784 43.2466C180.578 44.3152 180.692 45.4211 181.113 46.4248C181.534 47.4285 182.243 48.285 183.15 48.8863C184.057 49.4877 185.122 49.8069 186.211 49.8037C186.941 49.8162 187.667 49.6805 188.343 49.4047C189.02 49.1289 189.633 48.7188 190.147 48.1991C190.66 47.6794 191.063 47.061 191.331 46.3812C191.599 45.7014 191.726 44.9743 191.704 44.244Z" fill="white"/>
<path d="M198.21 44.2439C198.194 42.9956 198.433 41.7572 198.91 40.6036C199.387 39.4499 200.093 38.405 200.985 37.532C201.877 36.6589 202.937 35.9758 204.101 35.5241C205.265 35.0724 206.508 34.8614 207.756 34.9038C212.409 34.9038 216.083 37.8442 216.816 42.0365H212.698C212.352 41.0152 211.683 40.1348 210.79 39.5296C209.898 38.9244 208.832 38.6275 207.756 38.6843C206.281 38.6843 204.867 39.27 203.824 40.3127C202.782 41.3553 202.196 42.7694 202.196 44.2439C202.196 45.7184 202.782 47.1326 203.824 48.1752C204.867 49.2178 206.281 49.8035 207.756 49.8035C208.833 49.8598 209.9 49.5618 210.792 48.9549C211.685 48.3481 212.354 47.4659 212.698 46.443H216.816C216.083 50.6436 212.409 53.5841 207.756 53.5841C206.508 53.6253 205.266 53.4135 204.102 52.9613C202.939 52.5092 201.88 51.8261 200.987 50.9532C200.095 50.0804 199.389 49.036 198.912 47.8829C198.435 46.7297 198.196 45.4919 198.21 44.2439Z" fill="white"/>
<path d="M220.383 27.9771H224.303V43.511L232.103 35.324H237.062L229.41 43.264L237.35 53.1642H232.309L226.684 46.1302L224.303 48.6177V53.1642H220.383V27.9771Z" fill="white"/>
</svg>
