<svg width="21" height="20" viewBox="0 0 21 20" fill="none" xmlns="http://www.w3.org/2000/svg">
<path d="M18.4118 15.275C18.4118 15.575 18.3451 15.8834 18.2035 16.1834C18.0618 16.4834 17.8785 16.7667 17.6368 17.0334C17.2285 17.4834 16.7785 17.8084 16.2701 18.0167C15.7701 18.225 15.2285 18.3334 14.6451 18.3334C13.7951 18.3334 12.8868 18.1334 11.9285 17.725C10.9701 17.3167 10.0118 16.7667 9.06181 16.075C8.10348 15.375 7.19514 14.6 6.32847 13.7417C5.47014 12.875 4.69514 11.9667 4.00347 11.0167C3.32014 10.0667 2.77014 9.11669 2.37014 8.17502C1.97014 7.22502 1.77014 6.31669 1.77014 5.45002C1.77014 4.88335 1.87014 4.34169 2.07014 3.84169C2.27014 3.33335 2.58681 2.86669 3.02847 2.45002C3.56181 1.92502 4.14514 1.66669 4.76181 1.66669C4.99514 1.66669 5.22848 1.71669 5.43681 1.81669C5.65348 1.91669 5.84514 2.06669 5.99514 2.28335L7.92848 5.00835C8.07848 5.21669 8.18681 5.40835 8.26181 5.59169C8.33681 5.76669 8.37848 5.94169 8.37848 6.10002C8.37848 6.30002 8.32014 6.50002 8.20348 6.69169C8.09514 6.88335 7.93681 7.08335 7.73681 7.28335L7.10347 7.94169C7.01181 8.03335 6.97014 8.14169 6.97014 8.27502C6.97014 8.34169 6.97848 8.40002 6.99514 8.46669C7.02014 8.53335 7.04514 8.58335 7.06181 8.63335C7.21181 8.90835 7.47014 9.26669 7.83681 9.70002C8.21181 10.1334 8.61181 10.575 9.04514 11.0167C9.49514 11.4584 9.92848 11.8667 10.3701 12.2417C10.8035 12.6084 11.1618 12.8584 11.4451 13.0084C11.4868 13.025 11.5368 13.05 11.5951 13.075C11.6618 13.1 11.7285 13.1084 11.8035 13.1084C11.9451 13.1084 12.0535 13.0584 12.1451 12.9667L12.7785 12.3417C12.9868 12.1334 13.1868 11.975 13.3785 11.875C13.5701 11.7584 13.7618 11.7 13.9701 11.7C14.1285 11.7 14.2951 11.7334 14.4785 11.8084C14.6618 11.8834 14.8535 11.9917 15.0618 12.1334L17.8201 14.0917C18.0368 14.2417 18.1868 14.4167 18.2785 14.625C18.3618 14.8334 18.4118 15.0417 18.4118 15.275Z" fill="#B7BABC"/>
</svg>
