<svg width="21" height="20" viewBox="0 0 21 20" fill="none" xmlns="http://www.w3.org/2000/svg">
<path d="M14.2703 8.33341H15.9369C17.6036 8.33341 18.4369 7.50008 18.4369 5.83341V4.16675C18.4369 2.50008 17.6036 1.66675 15.9369 1.66675H14.2703C12.6036 1.66675 11.7703 2.50008 11.7703 4.16675V5.83341C11.7703 7.50008 12.6036 8.33341 14.2703 8.33341Z" stroke="#E6E6E6" stroke-width="1.3" stroke-miterlimit="10" stroke-linecap="round" stroke-linejoin="round"/>
<path d="M4.27026 18.3334H5.93693C7.6036 18.3334 8.43693 17.5001 8.43693 15.8334V14.1667C8.43693 12.5001 7.6036 11.6667 5.93693 11.6667H4.27026C2.6036 11.6667 1.77026 12.5001 1.77026 14.1667V15.8334C1.77026 17.5001 2.6036 18.3334 4.27026 18.3334Z" stroke="#E6E6E6" stroke-width="1.3" stroke-miterlimit="10" stroke-linecap="round" stroke-linejoin="round"/>
<path d="M5.1036 8.33341C6.94455 8.33341 8.43693 6.84103 8.43693 5.00008C8.43693 3.15913 6.94455 1.66675 5.1036 1.66675C3.26265 1.66675 1.77026 3.15913 1.77026 5.00008C1.77026 6.84103 3.26265 8.33341 5.1036 8.33341Z" stroke="#E6E6E6" stroke-width="1.3" stroke-miterlimit="10" stroke-linecap="round" stroke-linejoin="round"/>
<path d="M15.1036 18.3334C16.9445 18.3334 18.4369 16.841 18.4369 15.0001C18.4369 13.1591 16.9445 11.6667 15.1036 11.6667C13.2626 11.6667 11.7703 13.1591 11.7703 15.0001C11.7703 16.841 13.2626 18.3334 15.1036 18.3334Z" stroke="#E6E6E6" stroke-width="1.5" stroke-miterlimit="10" stroke-linecap="round" stroke-linejoin="round"/>
</svg>
