<svg width="21" height="21" viewBox="0 0 21 21" fill="none" xmlns="http://www.w3.org/2000/svg">
<path d="M2.60156 8.19613V13.0045C2.60156 14.7711 2.60156 14.7711 4.26823 15.8961L8.85156 18.5461C9.54323 18.9461 10.6682 18.9461 11.3516 18.5461L15.9349 15.8961C17.6016 14.7711 17.6016 14.7711 17.6016 13.0128V8.19613C17.6016 6.43779 17.6016 6.43779 15.9349 5.31279L11.3516 2.66279C10.6682 2.26279 9.54323 2.26279 8.85156 2.66279L4.26823 5.31279C2.60156 6.43779 2.60156 6.43779 2.60156 8.19613Z" stroke="#E6E6E6" stroke-width="1.3" stroke-linecap="round" stroke-linejoin="round"/>
<path d="M10.1016 13.1045C11.4823 13.1045 12.6016 11.9852 12.6016 10.6045C12.6016 9.22378 11.4823 8.10449 10.1016 8.10449C8.72085 8.10449 7.60156 9.22378 7.60156 10.6045C7.60156 11.9852 8.72085 13.1045 10.1016 13.1045Z" stroke="#E6E6E6" stroke-width="1.3" stroke-linecap="round" stroke-linejoin="round"/>
</svg>
