<svg width="17" height="17" viewBox="0 0 17 17" fill="none" xmlns="http://www.w3.org/2000/svg">
<g clip-path="url(#clip0_3678_1901)">
<path d="M16.1412 3.55037C15.8899 3.66185 15.6314 3.75594 15.3674 3.83233C15.68 3.47878 15.9183 3.06278 16.0638 2.60755C16.0965 2.50552 16.0627 2.39383 15.9788 2.32709C15.895 2.2603 15.7786 2.2523 15.6864 2.30696C15.1256 2.63955 14.5206 2.87857 13.8862 3.01834C13.2472 2.39393 12.3793 2.03857 11.4821 2.03857C9.58813 2.03857 8.04728 3.57937 8.04728 5.47326C8.04728 5.62242 8.05672 5.77075 8.07541 5.91703C5.72521 5.71068 3.54028 4.55553 2.0399 2.71506C1.98643 2.64946 1.90405 2.61411 1.81972 2.62087C1.73533 2.62748 1.65951 2.67506 1.61688 2.7482C1.31257 3.27037 1.15169 3.86758 1.15169 4.47522C1.15169 5.30283 1.44718 6.08807 1.96914 6.70164C1.81043 6.64668 1.65641 6.57798 1.50942 6.49638C1.4305 6.45246 1.3342 6.45313 1.2558 6.49808C1.17734 6.54304 1.12816 6.62572 1.12609 6.7161C1.12573 6.73132 1.12573 6.74655 1.12573 6.76198C1.12573 7.99733 1.79061 9.10954 2.80712 9.71573C2.71979 9.70701 2.63252 9.69437 2.54581 9.6778C2.45641 9.66071 2.36449 9.69204 2.30421 9.76022C2.24382 9.82835 2.22385 9.92332 2.25167 10.01C2.62792 11.1847 3.59665 12.0488 4.76774 12.3122C3.79644 12.9206 2.68568 13.2392 1.51964 13.2392C1.27634 13.2392 1.03164 13.2249 0.792156 13.1966C0.673189 13.1825 0.559434 13.2527 0.518918 13.3659C0.478402 13.479 0.521344 13.6052 0.622556 13.6701C2.12052 14.6306 3.85259 15.1382 5.63143 15.1382C9.12841 15.1382 11.316 13.4892 12.5354 12.1058C14.0559 10.3809 14.9279 8.09767 14.9279 5.84172C14.9279 5.74748 14.9265 5.6523 14.9236 5.55744C15.5235 5.10546 16.04 4.55847 16.4603 3.92977C16.5241 3.83429 16.5172 3.7081 16.4433 3.6202C16.3694 3.53225 16.2463 3.50381 16.1412 3.55037Z" fill="white"/>
</g>
<defs>
<clipPath id="clip0_3678_1901">
<rect width="16" height="16" fill="white" transform="translate(0.503906 0.588379)"/>
</clipPath>
</defs>
</svg>
