<svg width="85" height="84" viewBox="0 0 85 84" fill="none" xmlns="http://www.w3.org/2000/svg">
<path d="M77.5702 58.87L66.6152 33.25C64.6202 28.56 61.6452 25.9 58.2502 25.725C54.8902 25.55 51.6352 27.895 49.1502 32.375L42.5002 44.31C41.1002 46.83 39.1052 48.335 36.9352 48.51C34.7302 48.72 32.5252 47.565 30.7402 45.29L29.9702 44.31C27.4852 41.195 24.4052 39.69 21.2552 40.005C18.1052 40.32 15.4102 42.49 13.6252 46.025L7.57024 58.1C5.40024 62.475 5.61024 67.55 8.16524 71.68C10.7202 75.81 15.1652 78.295 20.0302 78.295H64.6902C69.3802 78.295 73.7552 75.95 76.3452 72.03C79.0052 68.11 79.4252 63.175 77.5702 58.87Z" fill="#CFD1D2"/>
<path d="M24.8949 29.3299C31.4285 29.3299 36.7249 24.0334 36.7249 17.4999C36.7249 10.9664 31.4285 5.66992 24.8949 5.66992C18.3614 5.66992 13.0649 10.9664 13.0649 17.4999C13.0649 24.0334 18.3614 29.3299 24.8949 29.3299Z" fill="#CFD1D2"/>
</svg>
