<svg width="21" height="20" viewBox="0 0 21 20" fill="none" xmlns="http://www.w3.org/2000/svg">
<path d="M10.1036 14.4583C10.8538 14.4583 11.4619 13.8502 11.4619 13.1C11.4619 12.3498 10.8538 11.7417 10.1036 11.7417C9.35339 11.7417 8.74524 12.3498 8.74524 13.1C8.74524 13.8502 9.35339 14.4583 10.1036 14.4583Z" fill="#B7BABC"/>
<path d="M15.3368 7.94166V6.89999C15.3368 4.64999 14.7951 1.66666 10.1035 1.66666C5.41181 1.66666 4.87014 4.64999 4.87014 6.89999V7.94166C2.53681 8.23332 1.77014 9.41666 1.77014 12.325V13.875C1.77014 17.2917 2.81181 18.3333 6.22848 18.3333H13.9785C17.3951 18.3333 18.4368 17.2917 18.4368 13.875V12.325C18.4368 9.41666 17.6701 8.23332 15.3368 7.94166ZM10.1035 15.6167C8.71181 15.6167 7.58681 14.4833 7.58681 13.1C7.58681 11.7083 8.72014 10.5833 10.1035 10.5833C11.4868 10.5833 12.6201 11.7167 12.6201 13.1C12.6201 14.4917 11.4951 15.6167 10.1035 15.6167ZM6.22848 7.86666C6.16181 7.86666 6.10348 7.86666 6.03681 7.86666V6.89999C6.03681 4.45832 6.72848 2.83332 10.1035 2.83332C13.4785 2.83332 14.1701 4.45832 14.1701 6.89999V7.87499C14.1035 7.87499 14.0451 7.87499 13.9785 7.87499H6.22848V7.86666Z" fill="#B7BABC"/>
</svg>
