<svg width="21" height="21" viewBox="0 0 21 21" fill="none" xmlns="http://www.w3.org/2000/svg">
<path d="M10.1019 19.3039C8.92133 19.3039 7.82411 19.0921 6.81022 18.6685C5.79633 18.2448 4.91439 17.658 4.16439 16.908C3.41439 16.158 2.82758 15.2761 2.40397 14.2622C1.98036 13.2483 1.76855 12.1511 1.76855 10.9705C1.76855 9.80387 1.98036 8.7136 2.40397 7.69971C2.82758 6.68582 3.41439 5.80387 4.16439 5.05387C4.91439 4.30387 5.79633 3.7136 6.81022 3.28304C7.82411 2.85248 8.92133 2.63721 10.1019 2.63721C11.1436 2.63721 12.1158 2.80387 13.0186 3.13721C13.9213 3.47054 14.7338 3.92887 15.4561 4.51221L14.5602 5.40804C13.9491 4.92193 13.2686 4.54693 12.5186 4.28304C11.7686 4.01915 10.963 3.88721 10.1019 3.88721C8.088 3.88721 6.40397 4.56429 5.0498 5.91846C3.69564 7.27262 3.01855 8.95665 3.01855 10.9705C3.01855 12.9844 3.69564 14.6685 5.0498 16.0226C6.40397 17.3768 8.088 18.0539 10.1019 18.0539C12.1158 18.0539 13.7998 17.3768 15.154 16.0226C16.5081 14.6685 17.1852 12.9844 17.1852 10.9705C17.1852 10.5539 17.154 10.1476 17.0915 9.75179C17.029 9.35596 16.9352 8.97054 16.8102 8.59554L17.7686 7.63721C17.9908 8.1511 18.1574 8.68582 18.2686 9.24137C18.3797 9.79693 18.4352 10.3733 18.4352 10.9705C18.4352 12.1511 18.2199 13.2483 17.7894 14.2622C17.3588 15.2761 16.7686 16.158 16.0186 16.908C15.2686 17.658 14.3866 18.2448 13.3727 18.6685C12.3588 19.0921 11.2686 19.3039 10.1019 19.3039ZM8.87272 14.7622L5.43522 11.3039L6.37272 10.3664L8.87272 12.8664L17.4977 4.24137L18.4561 5.17887L8.87272 14.7622Z" fill="#53D258"/>
</svg>
