<svg width="25" height="25" viewBox="0 0 25 25" fill="none" xmlns="http://www.w3.org/2000/svg">
<path d="M16.8451 9.25824L8.35979 17.7435C8.06988 18.0334 7.58904 18.0334 7.29913 17.7435C7.00922 17.4536 7.00922 16.9728 7.29913 16.6829L15.7844 8.19758C16.0743 7.90767 16.5552 7.90767 16.8451 8.19758C17.135 8.4875 17.135 8.96833 16.8451 9.25824Z" fill="#101820"/>
<path d="M16.8451 17.7436C16.5552 18.0335 16.0743 18.0335 15.7844 17.7436L7.29913 9.2583C7.00922 8.96838 7.00922 8.48755 7.29913 8.19764C7.58904 7.90772 8.06988 7.90772 8.35979 8.19764L16.8451 16.6829C17.135 16.9728 17.135 17.4537 16.8451 17.7436Z" fill="#101820"/>
</svg>
