<svg width="47" height="47" viewBox="0 0 47 47" fill="none" xmlns="http://www.w3.org/2000/svg">
<circle cx="23.1828" cy="23.2692" r="23.0812" fill="#FFF9EB"/>
<path d="M32.1257 31.8978V19.276C32.1257 19.2564 32.1232 19.2392 32.1208 19.2221C32.1208 19.2196 32.1208 19.2196 32.1208 19.2172V19.2147C32.111 19.178 32.0889 19.1412 32.0546 19.1045C32.0473 19.0971 32.0399 19.0898 32.0326 19.0824C31.8586 18.9085 31.6847 18.7345 31.5107 18.5606C31.0624 18.1123 30.6141 17.6639 30.1633 17.2132C29.59 16.6399 29.0168 16.0666 28.4435 15.4933C27.8923 14.9421 27.341 14.3909 26.7874 13.8372C26.3954 13.4477 26.0034 13.0533 25.609 12.6613C25.5183 12.5706 25.4277 12.4775 25.3346 12.3869C25.2635 12.3158 25.1802 12.2766 25.0798 12.2742C24.7025 12.2693 24.3228 12.2693 23.943 12.2693H17.2328C16.8727 12.2693 16.515 12.2742 16.1548 12.2742C15.1308 12.2766 14.266 13.09 14.2415 14.1239C14.239 14.2757 14.2415 14.4301 14.2415 14.582V31.9786C14.2415 32.155 14.2317 32.3363 14.2464 32.5127C14.3297 33.5025 15.1602 34.2619 16.1499 34.2644C16.4047 34.2644 16.6571 34.2693 16.9094 34.2693H29.3867C29.6586 34.2693 29.9281 34.2644 30.2001 34.2644C31.0943 34.2644 31.9174 33.6446 32.0865 32.7479C32.1404 32.4711 32.1257 32.1795 32.1257 31.8978ZM28.5978 30.227C28.5978 30.3029 28.5684 30.3617 28.5243 30.4009C28.5121 30.4156 28.4974 30.423 28.4827 30.4352C28.4729 30.4401 28.4631 30.4499 28.4508 30.4499C28.4435 30.4499 28.4361 30.4573 28.4288 30.4597C28.4263 30.4597 28.4239 30.4622 28.4214 30.4622C28.419 30.4622 28.4165 30.4646 28.4116 30.4646C28.4116 30.4646 28.4116 30.4646 28.4116 30.4671C28.4067 30.4671 28.3994 30.472 28.3945 30.472C28.3871 30.472 28.3822 30.472 28.3749 30.472C28.3675 30.472 28.3602 30.472 28.3553 30.472C28.3479 30.472 28.343 30.472 28.3357 30.472C27.9168 30.4867 27.4954 30.472 27.0789 30.472H18.0168C17.8845 30.472 17.7693 30.3593 17.7693 30.227V28.4263C17.7693 28.419 17.7693 28.4141 17.7693 28.4067C17.7693 28.3994 17.7693 28.3945 17.7718 28.3896C17.7718 28.3871 17.7718 28.3822 17.7742 28.3798C17.7742 28.3749 17.7767 28.37 17.7791 28.3651C17.7791 28.3626 17.7816 28.3577 17.7816 28.3553C17.7816 28.3528 17.784 28.3479 17.784 28.3455C17.784 28.3455 17.784 28.343 17.7865 28.343C17.7889 28.3381 17.7914 28.3332 17.7914 28.3283C17.7914 28.3259 17.7914 28.3259 17.7938 28.3234C17.7963 28.321 17.7963 28.3161 17.7987 28.3136C17.7987 28.3136 17.7987 28.3136 17.7987 28.3112C17.7987 28.3112 17.7987 28.3087 17.8012 28.3087C17.8036 28.3014 17.8085 28.2965 17.811 28.2916C17.8134 28.2867 17.8159 28.2842 17.8183 28.2793C17.8232 28.2744 17.8257 28.2695 17.8306 28.2646C17.8428 28.2524 17.8551 28.2401 17.8673 28.2303C17.8698 28.2279 17.8722 28.2254 17.8747 28.223C17.8771 28.2205 17.882 28.2181 17.8845 28.2156C17.8869 28.2132 17.8918 28.2107 17.8943 28.2107C17.8967 28.2083 17.9016 28.2058 17.9041 28.2058C17.909 28.2034 17.9139 28.2009 17.9188 28.1985C17.9237 28.196 17.931 28.1936 17.9359 28.1911C17.9408 28.1887 17.9457 28.1887 17.9506 28.1862H17.9531C17.9531 28.1862 17.9555 28.1862 17.958 28.1862C17.9629 28.1862 17.9653 28.1838 17.9702 28.1838H17.9727H17.9751C17.9776 28.1838 17.9825 28.1838 17.9849 28.1838C17.9874 28.1838 17.9898 28.1838 17.9923 28.1838H17.9947C17.9996 28.1838 18.007 28.1838 18.0119 28.1838C18.0168 28.1838 18.0241 28.1789 18.029 28.1789H18.0315C18.4504 28.1642 18.8718 28.174 19.2883 28.174H28.3455C28.4778 28.174 28.5929 28.2989 28.5929 28.4312V30.227H28.5978ZM28.5978 25.2022C28.5978 25.2096 28.5978 25.2145 28.5978 25.2218C28.5978 25.2292 28.5978 25.2365 28.5954 25.2439C28.5954 25.2512 28.5929 25.2561 28.5905 25.2635C28.5905 25.2684 28.588 25.2708 28.588 25.2757C28.5856 25.2806 28.5856 25.2855 28.5831 25.2904C28.5782 25.3027 28.5733 25.3149 28.566 25.3272C28.5635 25.3296 28.5635 25.3321 28.5611 25.3345C28.5586 25.337 28.5562 25.3419 28.5537 25.3443C28.5488 25.3492 28.5439 25.3566 28.539 25.3615C28.5366 25.3639 28.5341 25.3664 28.5317 25.3688C28.5292 25.3713 28.5268 25.3737 28.5243 25.3762C28.5219 25.3786 28.517 25.3835 28.5145 25.386C28.5121 25.3884 28.5072 25.3909 28.5047 25.3933C28.5023 25.3958 28.4998 25.3982 28.4974 25.4007C28.4949 25.4031 28.49 25.4056 28.4876 25.408C28.4851 25.4105 28.4827 25.4105 28.4802 25.4129C28.4778 25.4129 28.4778 25.4154 28.4753 25.4154C28.4729 25.4154 28.4704 25.4178 28.4704 25.4178C28.4704 25.4178 28.4704 25.4178 28.468 25.4178H28.4655C28.4655 25.4178 28.4655 25.4178 28.4631 25.4178C28.4606 25.4178 28.4582 25.4203 28.4533 25.4227H28.4508C28.4459 25.4252 28.4435 25.4252 28.4386 25.4276C28.4312 25.4301 28.4263 25.4325 28.419 25.435H28.4165C28.3969 25.4399 28.3749 25.4423 28.3504 25.4423C28.3455 25.4423 28.3406 25.4423 28.3381 25.4448C28.3357 25.4448 28.3357 25.4448 28.3332 25.4448C27.9143 25.4693 27.4929 25.4448 27.0764 25.4448H18.0168C17.8845 25.4448 17.7693 25.3296 17.7693 25.1973V23.3967C17.7693 23.3795 17.7718 23.3648 17.7742 23.3477C17.7767 23.3403 17.7767 23.333 17.7816 23.3232C17.784 23.3158 17.7865 23.3085 17.7889 23.3011C17.7889 23.2987 17.7914 23.2962 17.7914 23.2938C17.7914 23.2938 17.7914 23.2913 17.7938 23.2889C17.7963 23.2864 17.7963 23.2815 17.7987 23.2791C17.8036 23.2717 17.8085 23.2644 17.8134 23.257C17.8134 23.2546 17.8159 23.2546 17.8183 23.2521C17.8183 23.2521 17.8183 23.2497 17.8208 23.2497C17.8232 23.2472 17.8257 23.2423 17.8281 23.2399C17.8281 23.2399 17.8281 23.2399 17.8281 23.2374C17.8306 23.235 17.833 23.2301 17.8355 23.2276L17.8379 23.2252C17.8453 23.2178 17.8526 23.2105 17.8624 23.2031C17.8649 23.2007 17.8673 23.1982 17.8698 23.1958C17.8771 23.1909 17.8845 23.186 17.8918 23.1811C17.8943 23.1786 17.8992 23.1786 17.9016 23.1762C17.909 23.1713 17.9163 23.1688 17.9237 23.1639C17.9261 23.1615 17.931 23.1615 17.9335 23.159C17.9359 23.1566 17.9408 23.1566 17.9457 23.1541C17.9506 23.1517 17.9555 23.1517 17.9604 23.1492C17.9678 23.1468 17.9751 23.1468 17.98 23.1443C17.9874 23.1443 17.9923 23.1419 17.9972 23.1419C18.0045 23.1419 18.0094 23.1419 18.0168 23.1419C18.0192 23.1419 18.0241 23.1419 18.0266 23.1394C18.029 23.1394 18.029 23.1394 18.0315 23.137C18.0339 23.137 18.0339 23.137 18.0364 23.137C18.4553 23.1223 18.8767 23.1321 19.2956 23.1321H28.3528C28.4851 23.1321 28.6003 23.2546 28.6003 23.3869V25.2022H28.5978ZM29.8448 19.3789C29.8154 19.4499 29.7591 19.5063 29.6684 19.5185C29.639 19.5259 29.6096 19.5259 29.5802 19.521H25.1263C24.994 19.521 24.874 19.4107 24.874 19.2784V14.7804C24.874 14.5673 25.1459 14.457 25.2978 14.6065C25.484 14.7927 25.6751 14.9789 25.8613 15.1675C26.6673 15.976 27.4758 16.782 28.2818 17.588C28.7767 18.0829 29.2715 18.5802 29.7689 19.0751C29.7909 19.0898 29.8081 19.1094 29.8203 19.1314C29.8865 19.2098 29.884 19.3029 29.8448 19.3789Z" fill="#FDD15E"/>
</svg>
