<svg width="21" height="20" viewBox="0 0 21 20" fill="none" xmlns="http://www.w3.org/2000/svg">
<path fill-rule="evenodd" clip-rule="evenodd" d="M2.64882 4.21199C1.77014 5.09067 1.77014 6.50488 1.77014 9.33331V10.6666C1.77014 13.4951 1.77014 14.9093 2.64882 15.788C3.5275 16.6666 4.94172 16.6666 7.77014 16.6666H12.4368C15.2652 16.6666 16.6795 16.6666 17.5581 15.788C18.4368 14.9093 18.4368 13.4951 18.4368 10.6666V9.33331C18.4368 6.50489 18.4368 5.09067 17.5581 4.21199C16.6795 3.33331 15.2652 3.33331 12.4368 3.33331H7.77014C4.94171 3.33331 3.5275 3.33331 2.64882 4.21199ZM4.419 6.31806C3.96352 6.00572 3.34108 6.12177 3.02875 6.57726C2.71641 7.03274 2.83246 7.65518 3.28795 7.96751L8.97242 11.8654C9.65403 12.3328 10.5529 12.3328 11.2345 11.8654L16.919 7.96751C17.3745 7.65518 17.4905 7.03274 17.1782 6.57726C16.8659 6.12177 16.2434 6.00572 15.7879 6.31806L10.1035 10.216L4.419 6.31806Z" fill="#B7BABC"/>
</svg>
