<svg width="39" height="39" viewBox="0 0 39 39" fill="none" xmlns="http://www.w3.org/2000/svg">
<g clip-path="url(#clip0_3644_273)">
<path d="M19.5 39C30.2696 39 39 30.2696 39 19.5C39 8.73045 30.2696 0 19.5 0C8.73045 0 0 8.73045 0 19.5C0 30.2696 8.73045 39 19.5 39Z" fill="#FFF3D7"/>
<path d="M13.8087 15.3692C14.1308 12.4701 16.5813 10.2767 19.4984 10.2767C22.4154 10.2767 24.8659 12.47 25.1881 15.3692L25.4461 17.6916C25.4542 17.764 25.4582 17.8002 25.4625 17.8359C25.594 18.9299 25.9501 19.985 26.5085 20.9349C26.5268 20.966 26.5455 20.9972 26.583 21.0596L27.1753 22.0469C27.7333 22.9768 28.0123 23.4418 27.9352 23.8221C27.8931 24.0299 27.7861 24.2188 27.6297 24.3618C27.3432 24.6235 26.801 24.6235 25.7165 24.6235H13.2803C12.1958 24.6235 11.6535 24.6235 11.367 24.3618C11.2106 24.2188 11.1036 24.0299 11.0615 23.8221C10.9844 23.4418 11.2634 22.9768 11.8214 22.0469L12.4137 21.0596C12.4512 20.9972 12.4699 20.966 12.4882 20.9349C13.0466 19.985 13.4027 18.9299 13.5342 17.8359C13.5385 17.8002 13.5426 17.764 13.5506 17.6916L13.8087 15.3692Z" stroke="#FDC536"/>
<path d="M16.8261 25.6465C16.9838 26.529 17.3311 27.3088 17.8144 27.865C18.2976 28.4212 18.8896 28.7227 19.4987 28.7227C20.1078 28.7227 20.6999 28.4212 21.1831 27.865C21.6663 27.3088 22.0137 26.529 22.1713 25.6465" stroke="#FDC536" stroke-linecap="round"/>
</g>
<defs>
<clipPath id="clip0_3644_273">
<rect width="39" height="39" fill="white"/>
</clipPath>
</defs>
</svg>
