<svg width="25" height="24" viewBox="0 0 25 24" fill="none" xmlns="http://www.w3.org/2000/svg">
<path d="M20.0703 10H4.07031V18C4.07031 21 5.07031 22 8.07031 22H16.0703C19.0703 22 20.0703 21 20.0703 18V10Z" stroke="#9FA3A6" stroke-width="1.3" stroke-miterlimit="10" stroke-linecap="round" stroke-linejoin="round"/>
<path d="M21.6016 7V8C21.6016 9.1 21.0716 10 19.6016 10H4.60156C3.07156 10 2.60156 9.1 2.60156 8V7C2.60156 5.9 3.07156 5 4.60156 5L19.6016 5C21.0716 5 21.6016 5.9 21.6016 7Z" stroke="#9FA3A6" stroke-width="1.3" stroke-miterlimit="10" stroke-linecap="round" stroke-linejoin="round"/>
<path d="M11.7404 4.99994H6.22037C5.88037 4.62994 5.89037 4.05994 6.25037 3.69994L7.67037 2.27994C8.04037 1.90994 8.65037 1.90994 9.02037 2.27994L11.7404 4.99994Z" stroke="#9FA3A6" stroke-width="1.3" stroke-miterlimit="10" stroke-linecap="round" stroke-linejoin="round"/>
<path d="M17.9731 4.99994H12.4531L15.1731 2.27994C15.5431 1.90994 16.1531 1.90994 16.5231 2.27994L17.9431 3.69994C18.3031 4.05994 18.3131 4.62994 17.9731 4.99994Z" stroke="#9FA3A6" stroke-width="1.3" stroke-miterlimit="10" stroke-linecap="round" stroke-linejoin="round"/>
<path d="M9.04297 10V15.14C9.04297 15.94 9.92297 16.41 10.593 15.98L11.533 15.36C11.873 15.14 12.303 15.14 12.633 15.36L13.523 15.96C14.183 16.4 15.073 15.93 15.073 15.13V10H9.04297Z" stroke="#9FA3A6" stroke-width="1.5" stroke-miterlimit="10" stroke-linecap="round" stroke-linejoin="round"/>
</svg>
