<svg width="47" height="47" viewBox="0 0 47 47" fill="none" xmlns="http://www.w3.org/2000/svg">
<circle cx="23.1828" cy="23.0812" r="23.0812" fill="#FFF3D7"/>
<g clip-path="url(#clip0_3433_2382)">
<path d="M11.1016 11.6625V34.3291H28.4349V30.3291H27.1016V32.9959H12.4349V12.9958H27.1016V15.6625H28.4349V11.6625H11.1016Z" fill="#40464D"/>
<path fill-rule="evenodd" clip-rule="evenodd" d="M26.4375 28.9959C27.8542 28.9959 29.156 28.5049 30.1825 27.6839L33.9622 31.467C34.2224 31.7275 34.6445 31.7276 34.9049 31.4675C35.1654 31.2073 35.1657 30.7851 34.9054 30.5246L31.1253 26.7411C31.9465 25.7146 32.4375 24.4125 32.4375 22.9958C32.4375 19.6821 29.7512 16.9958 26.4375 16.9958C23.1238 16.9958 20.4375 19.6821 20.4375 22.9958C20.4375 26.3095 23.1238 28.9959 26.4375 28.9959ZM26.4375 27.6625C29.0148 27.6625 31.1042 25.5731 31.1042 22.9958C31.1042 20.4185 29.0148 18.3292 26.4375 18.3292C23.8602 18.3292 21.7708 20.4185 21.7708 22.9958C21.7708 25.5731 23.8602 27.6625 26.4375 27.6625Z" fill="#40464D"/>
</g>
<defs>
<clipPath id="clip0_3433_2382">
<rect width="24" height="24" fill="white" transform="translate(11.1016 11)"/>
</clipPath>
</defs>
</svg>
