<svg width="24" height="24" viewBox="0 0 24 24" fill="none" xmlns="http://www.w3.org/2000/svg">
<path d="M3.16667 19H21.8333C22.475 19 23 18.475 23 17.8333C23 17.1917 22.475 16.6667 21.8333 16.6667H3.16667C2.525 16.6667 2 17.1917 2 17.8333C2 18.475 2.525 19 3.16667 19ZM3.16667 13.1667H21.8333C22.475 13.1667 23 12.6417 23 12C23 11.3583 22.475 10.8333 21.8333 10.8333H3.16667C2.525 10.8333 2 11.3583 2 12C2 12.6417 2.525 13.1667 3.16667 13.1667ZM2 6.16667C2 6.80833 2.525 7.33333 3.16667 7.33333H21.8333C22.475 7.33333 23 6.80833 23 6.16667C23 5.525 22.475 5 21.8333 5H3.16667C2.525 5 2 5.525 2 6.16667Z" fill="#101820"/>
</svg>
