<svg width="17" height="14" viewBox="0 0 17 14" fill="none" xmlns="http://www.w3.org/2000/svg">
<g clip-path="url(#clip0_3678_1910)">
<path fill-rule="evenodd" clip-rule="evenodd" d="M6.89783 9.37246V4.81286C8.4916 5.57452 9.72595 6.3103 11.1858 7.10357C9.98175 7.78177 8.4916 8.54273 6.89783 9.37246ZM15.7799 2.54516C15.505 2.17729 15.0364 1.89094 14.5376 1.79613C13.0713 1.51334 3.92387 1.51254 2.4584 1.79613C2.05837 1.8723 1.70215 2.0564 1.39615 2.34243C0.10679 3.55785 0.510813 10.0757 0.821598 11.1316C0.952286 11.5886 1.12123 11.9181 1.334 12.1345C1.60813 12.4205 1.98345 12.6175 2.41457 12.7058C3.62184 12.9594 9.84151 13.1012 14.512 12.7439C14.9424 12.6677 15.3233 12.4644 15.6237 12.1662C16.8158 10.9557 16.7346 4.07172 15.7799 2.54516Z" fill="white"/>
</g>
<defs>
<clipPath id="clip0_3678_1910">
<rect width="16" height="13" fill="white" transform="translate(0.503906 0.588379)"/>
</clipPath>
</defs>
</svg>
